ffmpeg started on 2016-12-05 at 14:59:56
Report written to "Output/x264/results/ffmpeg/sintelfaster4000k.log"
Command line:
Tools/ffmpeg/ffmpeg -benchmark -y -i Input/y4m/sintel.y4m -c:v libx264 -preset faster -b:v 4000k -an Output/x264/encoded/sintelfaster4000k.mkv
ffmpeg version N-82227-gdb23fde Copyright (c) 2000-2016 the FFmpeg developers
  built with gcc 5.4.0 (Ubuntu 5.4.0-6ubuntu1~16.04.2) 20160609
  configuration: --prefix=/home/jaroslav/ffmpeg_build --pkg-config-flags=--static --extra-cflags=-I/home/jaroslav/ffmpeg_build/include --extra-ldflags=-L/home/jaroslav/ffmpeg_build/lib --bindir=/home/jaroslav/bin --enable-gpl --enable-libass --enable-libfdk-aac --enable-libfreetype --enable-libmp3lame --enable-libopus --enable-libtheora --enable-libvorbis --enable-libvpx --enable-libx264 --enable-libx265 --enable-nvenc --enable-libmfx --enable-libxvid --enable-libgsm --enable-libopencore-amrnb --enable-version3 --enable-nonfree
  libavutil      55. 35.100 / 55. 35.100
  libavcodec     57. 66.101 / 57. 66.101
  libavformat    57. 57.100 / 57. 57.100
  libavdevice    57.  2.100 / 57.  2.100
  libavfilter     6. 66.100 /  6. 66.100
  libswscale      4.  3.100 /  4.  3.100
  libswresample   2.  4.100 /  2.  4.100
  libpostproc    54.  2.100 / 54.  2.100
Input #0, yuv4mpegpipe, from 'Input/y4m/sintel.y4m':
  Duration: 00:00:20.83, start: 0.000000, bitrate: 2057307 kb/s
    Stream #0:0: Video: rawvideo (I420 / 0x30323449), yuv420p(progressive), 4096x1744, SAR 1:1 DAR 256:109, 24 fps, 24 tbr, 24 tbn, 24 tbc
[libx264 @ 0x28461c0] using SAR=1/1
[libx264 @ 0x28461c0] using cpu capabilities: MMX2 SSE2Fast SSSE3 SSE4.2 AVX FMA3 AVX2 LZCNT BMI2
[libx264 @ 0x28461c0] profile High, level 5.1
[libx264 @ 0x28461c0] 264 - core 148 - H.264/MPEG-4 AVC codec - Copyleft 2003-2016 - http://www.videolan.org/x264.html - options: cabac=1 ref=2 deblock=1:0:0 analyse=0x3:0x113 me=hex subme=4 psy=1 psy_rd=1.00:0.00 mixed_ref=0 me_range=16 chroma_me=1 trellis=1 8x8dct=1 cqm=0 deadzone=21,11 fast_pskip=1 chroma_qp_offset=0 threads=6 lookahead_threads=1 sliced_threads=0 nr=0 decimate=1 interlaced=0 bluray_compat=0 constrained_intra=0 bframes=3 b_pyramid=2 b_adapt=1 b_bias=0 direct=1 weightb=1 open_gop=0 weightp=1 keyint=250 keyint_min=24 scenecut=40 intra_refresh=0 rc_lookahead=20 rc=abr mbtree=1 bitrate=4000 ratetol=1.0 qcomp=0.60 qpmin=0 qpmax=69 qpstep=4 ip_ratio=1.40 aq=1:1.00
Output #0, matroska, to 'Output/x264/encoded/sintelfaster4000k.mkv':
  Metadata:
    encoder         : Lavf57.57.100
    Stream #0:0: Video: h264 (libx264) (H264 / 0x34363248), yuv420p, 4096x1744 [SAR 1:1 DAR 256:109], q=-1--1, 4000 kb/s, 24 fps, 1k tbn, 24 tbc
    Metadata:
      encoder         : Lavc57.66.101 libx264
    Side data:
      cpb: bitrate max/min/avg: 0/0/4000000 buffer size: 0 vbv_delay: -1
Stream mapping:
  Stream #0:0 -> #0:0 (rawvideo (native) -> h264 (libx264))
Press [q] to stop, [?] for help
frame=   11 fps=0.0 q=0.0 size=       0kB time=00:00:00.00 bitrate=N/A speed=   0x    frame=   20 fps= 19 q=0.0 size=       0kB time=00:00:00.00 bitrate=N/A speed=   0x    frame=   27 fps= 11 q=0.0 size=       0kB time=00:00:00.00 bitrate=N/A speed=   0x    frame=   34 fps= 11 q=42.0 size=       1kB time=00:00:00.04 bitrate= 136.4kbits/s speed=0.0138x    frame=   38 fps=9.9 q=50.0 size=       1kB time=00:00:00.20 bitrate=  28.1kbits/s speed=0.0543x    frame=   45 fps=5.6 q=51.0 size=       1kB time=00:00:00.50 bitrate=  11.7kbits/s speed=0.0627x    frame=   46 fps=4.1 q=51.0 size=       1kB time=00:00:00.54 bitrate=  10.8kbits/s speed=0.0479x    frame=   56 fps=4.7 q=52.0 size=       1kB time=00:00:00.95 bitrate=   6.1kbits/s speed=0.0807x    frame=   64 fps=5.2 q=51.0 size=       1kB time=00:00:01.29 bitrate=   4.5kbits/s speed=0.104x    frame=   72 fps=5.6 q=51.0 size=       1kB time=00:00:01.62 bitrate=   3.6kbits/s speed=0.125x    frame=   80 fps=5.9 q=50.0 size=       1kB time=00:00:01.95 bitrate=   3.0kbits/s speed=0.145x    frame=   87 fps=6.2 q=50.0 size=       1kB time=00:00:02.25 bitrate=   2.6kbits/s speed=0.16x    frame=   95 fps=6.5 q=50.0 size=       1kB time=00:00:02.58 bitrate=   2.3kbits/s speed=0.177x    frame=  103 fps=6.8 q=50.0 size=       1kB time=00:00:02.91 bitrate=   2.0kbits/s speed=0.193x    frame=  110 fps=7.0 q=50.0 size=       1kB time=00:00:03.20 bitrate=   1.8kbits/s speed=0.204x    frame=  117 fps=7.2 q=50.0 size=       1kB time=00:00:03.50 bitrate=   1.7kbits/s speed=0.216x    frame=  124 fps=7.4 q=50.0 size=       1kB time=00:00:03.79 bitrate=   1.5kbits/s speed=0.226x    frame=  132 fps=7.6 q=50.0 size=    2379kB time=00:00:04.12 bitrate=4722.9kbits/s speed=0.238x    frame=  139 fps=7.8 q=50.0 size=    2379kB time=00:00:04.41 bitrate=4410.7kbits/s speed=0.247x    frame=  149 fps=8.1 q=50.0 size=    2379kB time=00:00:04.83 bitrate=4031.2kbits/s speed=0.261x    frame=  157 fps=8.2 q=50.0 size=    2379kB time=00:00:05.16 bitrate=3770.6kbits/s speed=0.271x    frame=  164 fps=8.4 q=50.0 size=    2379kB time=00:00:05.45 bitrate=3569.6kbits/s speed=0.279x    frame=  172 fps=8.5 q=50.0 size=    2379kB time=00:00:05.79 bitrate=3363.8kbits/s speed=0.288x    frame=  180 fps=8.7 q=50.0 size=    2379kB time=00:00:06.12 bitrate=3181.0kbits/s speed=0.297x    frame=  187 fps=8.8 q=50.0 size=    3552kB time=00:00:06.41 bitrate=4533.5kbits/s speed=0.303x    frame=  195 fps=9.0 q=50.0 size=    3552kB time=00:00:06.75 bitrate=4309.9kbits/s speed=0.311x    frame=  202 fps=9.1 q=50.0 size=    3552kB time=00:00:07.04 bitrate=4131.2kbits/s speed=0.317x    frame=  209 fps=9.2 q=47.0 size=    3552kB time=00:00:07.33 bitrate=3967.3kbits/s speed=0.323x    frame=  215 fps=9.2 q=50.0 size=    4028kB time=00:00:07.58 bitrate=4350.6kbits/s speed=0.325x    frame=  223 fps=9.3 q=49.0 size=    4028kB time=00:00:07.91 bitrate=4167.1kbits/s speed=0.331x    frame=  231 fps=9.4 q=49.0 size=    4028kB time=00:00:08.25 bitrate=3998.9kbits/s speed=0.337x    frame=  239 fps=9.6 q=49.0 size=    4028kB time=00:00:08.58 bitrate=3843.8kbits/s speed=0.344x    frame=  248 fps=9.7 q=49.0 size=    4028kB time=00:00:08.95 bitrate=3682.9kbits/s speed=0.351x    frame=  255 fps=9.8 q=49.0 size=    4028kB time=00:00:09.25 bitrate=3566.7kbits/s speed=0.356x    frame=  263 fps=9.9 q=48.0 size=    4028kB time=00:00:09.58 bitrate=3442.7kbits/s speed=0.361x    frame=  270 fps= 10 q=48.0 size=    4028kB time=00:00:09.87 bitrate=3341.0kbits/s speed=0.365x    frame=  278 fps= 10 q=48.0 size=    4028kB time=00:00:10.20 bitrate=3232.0kbits/s speed=0.37x    frame=  288 fps= 10 q=48.0 size=    4028kB time=00:00:10.62 bitrate=3105.1kbits/s speed=0.377x    frame=  292 fps= 10 q=47.0 size=    4028kB time=00:00:10.79 bitrate=3057.1kbits/s speed=0.376x    frame=  302 fps= 10 q=47.0 size=    5207kB time=00:00:11.20 bitrate=3805.4kbits/s speed=0.382x    frame=  313 fps= 10 q=47.0 size=    5207kB time=00:00:11.66 bitrate=3655.7kbits/s speed=0.39x    frame=  323 fps= 11 q=47.0 size=    5207kB time=00:00:12.08 bitrate=3529.8kbits/s speed=0.397x    frame=  334 fps= 11 q=46.0 size=    5207kB time=00:00:12.54 bitrate=3400.6kbits/s speed=0.405x    frame=  345 fps= 11 q=45.0 size=    5207kB time=00:00:13.00 bitrate=3280.8kbits/s speed=0.412x    frame=  357 fps= 11 q=45.0 size=    5207kB time=00:00:13.50 bitrate=3159.3kbits/s speed=0.42x    frame=  369 fps= 11 q=44.0 size=    5207kB time=00:00:14.00 bitrate=3046.5kbits/s speed=0.428x    frame=  377 fps= 11 q=44.0 size=    5207kB time=00:00:14.33 bitrate=2975.7kbits/s speed=0.432x    frame=  385 fps= 11 q=43.0 size=    5207kB time=00:00:14.66 bitrate=2908.0kbits/s speed=0.433x    frame=  397 fps= 12 q=43.0 size=    6098kB time=00:00:15.16 bitrate=3293.2kbits/s speed=0.44x    frame=  404 fps= 12 q=43.0 size=    6098kB time=00:00:15.45 bitrate=3231.2kbits/s speed=0.442x    frame=  412 fps= 12 q=42.0 size=    6098kB time=00:00:15.79 bitrate=3162.9kbits/s speed=0.445x    frame=  422 fps= 12 q=42.0 size=    6098kB time=00:00:16.20 bitrate=3081.7kbits/s speed=0.45x    frame=  430 fps= 12 q=42.0 size=    6098kB time=00:00:16.54 bitrate=3019.5kbits/s speed=0.452x    frame=  439 fps= 12 q=42.0 size=    6098kB time=00:00:16.91 bitrate=2952.6kbits/s speed=0.455x    frame=  449 fps= 12 q=42.0 size=    7064kB time=00:00:17.33 bitrate=3338.6kbits/s speed=0.46x    frame=  457 fps= 12 q=42.0 size=    7064kB time=00:00:17.66 bitrate=3275.5kbits/s speed=0.463x    frame=  465 fps= 12 q=42.0 size=    7064kB time=00:00:18.00 bitrate=3214.9kbits/s speed=0.465x    frame=  475 fps= 12 q=42.0 size=    7064kB time=00:00:18.41 bitrate=3142.1kbits/s speed=0.47x    frame=  483 fps= 12 q=41.0 size=    7064kB time=00:00:18.75 bitrate=3086.3kbits/s speed=0.472x    frame=  493 fps= 12 q=41.0 size=    7064kB time=00:00:19.16 bitrate=3019.2kbits/s speed=0.475x    frame=  500 fps= 12 q=41.0 size=    7064kB time=00:00:19.45 bitrate=2974.0kbits/s speed=0.476x    frame=  500 fps= 12 q=-1.0 Lsize=    8265kB time=00:00:20.70 bitrate=3269.6kbits/s speed=0.494x    
video:8261kB audio:0kB subtitle:0kB other streams:0kB global headers:0kB muxing overhead: 0.056259%
bench: utime=108.676s
bench: maxrss=1115612kB
[libx264 @ 0x28461c0] frame I:8     Avg QP:36.58  size: 50736
[libx264 @ 0x28461c0] frame P:269   Avg QP:42.25  size: 19742
[libx264 @ 0x28461c0] frame B:223   Avg QP:40.93  size: 12295
[libx264 @ 0x28461c0] consecutive B-frames: 37.0%  8.4%  6.6% 48.0%
[libx264 @ 0x28461c0] mb I  I16..4: 53.2% 46.1%  0.7%
[libx264 @ 0x28461c0] mb P  I16..4: 29.6% 20.5%  0.0%  P16..4:  4.4%  0.4%  0.0%  0.0%  0.0%    skip:45.1%
[libx264 @ 0x28461c0] mb B  I16..4:  5.7%  3.9%  0.0%  B16..8: 11.5%  0.4%  0.0%  direct: 3.0%  skip:75.4%  L0:44.5% L1:53.8% BI: 1.7%
[libx264 @ 0x28461c0] final ratefactor: 39.52
[libx264 @ 0x28461c0] 8x8 transform intra:41.2% inter:91.7%
[libx264 @ 0x28461c0] coded y,uvDC,uvAC intra: 8.5% 15.7% 0.2% inter: 1.0% 1.3% 0.0%
[libx264 @ 0x28461c0] i16 v,h,dc,p: 57% 25% 11%  7%
[libx264 @ 0x28461c0] i8 v,h,dc,ddl,ddr,vr,hd,vl,hu:  8% 15% 68%  2%  1%  1%  2%  1%  2%
[libx264 @ 0x28461c0] i4 v,h,dc,ddl,ddr,vr,hd,vl,hu: 15% 22% 13%  8% 13%  6% 12%  4%  7%
[libx264 @ 0x28461c0] i8c dc,h,v,p: 93%  3%  3%  0%
[libx264 @ 0x28461c0] Weighted P-Frames: Y:0.7% UV:0.0%
[libx264 @ 0x28461c0] ref P L0: 65.7% 34.3%
[libx264 @ 0x28461c0] ref B L0: 83.6% 16.4%
[libx264 @ 0x28461c0] ref B L1: 96.4%  3.6%
[libx264 @ 0x28461c0] kb/s:3248.00
